<svg viewBox="0 0 13.0041 13.0039" xmlns="http://www.w3.org/2000/svg" xmlns:xlink="http://www.w3.org/1999/xlink" width="13.004089" height="13.003906" fill="none" customFrame="#000000">
	<path id="Arrow" d="M0 -1L15.5563 -1L15.5563 1L0 1L0 -1ZM0.02 0.98L0 1C-0.56 1 -1 0.56 -1 -0C-1 -0.56 -0.56 -1 0 -1L0.02 -0.98L0.02 0.98ZM14.1421 0L9.19239 -4.94975C8.79641 -5.34573 8.79641 -5.96798 9.19239 -6.36396C9.58837 -6.75994 10.2106 -6.75994 10.6066 -6.36396L16.2635 -0.707108C16.6594 -0.311128 16.6594 0.311128 16.2635 0.707108L10.6066 6.36396C10.2106 6.75994 9.58837 6.75994 9.19239 6.36396C8.79641 5.96798 8.79641 5.34573 9.19239 4.94975L14.1421 0Z" fill="rgb(255,255,255)" fill-rule="nonzero" transform="matrix(0.707107,-0.707107,0.707107,0.707107,1.00409,12)" />
</svg>
